<svg width="29" height="28" viewBox="0 0 29 28" fill="none" xmlns="http://www.w3.org/2000/svg">
<path fill-rule="evenodd" clip-rule="evenodd" d="M6.46956 6.01017C6.73247 5.74771 7.089 5.60027 7.46075 5.60027C7.8325 5.60027 8.18903 5.74771 8.45194 6.01017L14.4706 12.0204L20.4892 6.01017C20.6186 5.87645 20.7732 5.7698 20.9443 5.69643C21.1153 5.62305 21.2993 5.58443 21.4855 5.58282C21.6716 5.5812 21.8562 5.61662 22.0285 5.68702C22.2008 5.75741 22.3573 5.86136 22.489 5.99281C22.6206 6.12426 22.7247 6.28058 22.7952 6.45263C22.8657 6.62469 22.9012 6.80904 22.8996 6.99493C22.8979 7.18082 22.8593 7.36453 22.7858 7.53533C22.7123 7.70614 22.6055 7.86062 22.4716 7.98977L16.453 14L22.4716 20.0102C22.727 20.2742 22.8683 20.6279 22.8651 20.9949C22.8619 21.362 22.7145 21.7131 22.4545 21.9727C22.1946 22.2323 21.843 22.3795 21.4754 22.3827C21.1078 22.3859 20.7536 22.2448 20.4892 21.9898L14.4706 15.9796L8.45194 21.9898C8.18753 22.2448 7.83339 22.3859 7.46579 22.3827C7.0982 22.3795 6.74657 22.2323 6.48664 21.9727C6.2267 21.7131 6.07926 21.362 6.07606 20.9949C6.07287 20.6279 6.21418 20.2742 6.46956 20.0102L12.4882 14L6.46956 7.98977C6.20673 7.72723 6.05908 7.3712 6.05908 6.99997C6.05908 6.62874 6.20673 6.27271 6.46956 6.01017Z" fill="#6C6D6F"/>
</svg>
